<?xml version="1.0" standalone="no"?>
<!DOCTYPE svg PUBLIC "-//W3C//DTD SVG 20010904//EN"
 "http://www.w3.org/TR/2001/REC-SVG-20010904/DTD/svg10.dtd">
<svg version="1.0" xmlns="http://www.w3.org/2000/svg"
 width="1280.000000pt" height="1039.000000pt" viewBox="0 0 1280.000000 1039.000000"
 preserveAspectRatio="xMidYMid meet">

<g transform="translate(0.000000,1039.000000) scale(0.100000,-0.100000)"
fill="#000000" stroke="none">
<path d="M10535 9374 c-38 -14 -232 -81 -430 -149 -489 -167 -500 -171 -748
-264 -669 -250 -1316 -537 -1684 -749 -742 -426 -1182 -788 -1550 -1277 -172
-228 -356 -543 -466 -796 -57 -129 -157 -400 -157 -422 0 -6 57 -91 126 -187
69 -96 129 -181 133 -189 6 -10 64 42 213 191 293 291 664 617 1080 950 270
215 723 557 1013 763 116 83 230 164 255 182 25 18 218 148 430 291 500 335
703 464 1300 822 221 132 314 186 615 352 104 58 214 130 215 140 0 4 -35 54
-77 112 -43 57 -103 138 -133 179 -30 42 -57 76 -60 76 -3 0 -36 -11 -75 -25z"/>
<path d="M11366 8260 c-66 -47 -115 -87 -296 -240 -76 -64 -260 -211 -389
-311 -1226 -946 -2184 -1589 -3331 -2234 -170 -95 -452 -242 -642 -334 -174
-84 -263 -124 -531 -238 -25 -11 -36 -21 -33 -30 5 -13 63 -102 202 -314 54
-81 45 -79 322 -79 257 0 615 37 832 86 541 123 908 277 1380 580 284 182 734
535 975 765 514 491 1086 1111 1522 1650 56 69 132 159 169 200 129 144 137
155 123 181 -14 26 -219 350 -228 360 -3 3 -37 -15 -75 -42z"/>
<path d="M5250 3410 l0 -1550 270 0 270 0 0 515 c0 283 4 515 8 515 5 0 211
-232 458 -515 l449 -514 349 -1 350 0 -25 28 c-81 87 -986 1107 -997 1122 -11
15 27 61 330 401 364 408 652 733 676 762 14 16 -3 17 -334 16 l-349 0 -449
-515 c-247 -282 -452 -514 -457 -514 -5 0 -9 392 -9 900 l0 900 -270 0 -270 0
0 -1550z"/>
<path d="M673 4569 c-109 -10 -261 -52 -337 -91 -85 -45 -193 -155 -238 -243
-71 -140 -104 -352 -87 -563 30 -371 200 -582 529 -657 63 -15 156 -19 565
-25 513 -7 523 -8 615 -55 101 -52 144 -133 144 -275 1 -117 -19 -182 -72
-233 -50 -49 -134 -85 -223 -97 -41 -5 -390 -10 -781 -10 l-708 0 0 -230 0
-231 853 4 852 3 108 27 c143 35 234 83 323 172 80 79 130 171 166 304 18 65
21 105 22 276 0 274 -26 383 -131 532 -90 129 -199 196 -403 245 -77 19 -128
21 -570 28 -535 7 -539 8 -637 73 -74 49 -106 117 -111 233 -6 128 14 194 78
255 28 28 71 56 106 70 l59 24 768 3 767 2 0 235 0 235 -787 -1 c-434 -1 -825
-5 -870 -10z"/>
<path d="M2732 3368 c3 -814 4 -824 26 -903 59 -214 192 -384 374 -480 88 -47
131 -61 268 -92 l115 -26 633 -4 632 -4 0 1165 0 1166 -250 0 -250 0 0 -946 0
-946 -332 5 c-359 5 -382 8 -497 63 -68 34 -149 113 -179 175 -13 26 -27 73
-32 105 -6 34 -10 375 -10 802 l0 742 -250 0 -251 0 3 -822z"/>
<path d="M8425 4179 c-428 -41 -681 -228 -792 -586 l-28 -88 -3 -822 -3 -823
251 0 250 0 0 743 c0 819 1 834 62 933 88 145 262 214 544 214 l134 0 0 -245
0 -245 255 0 255 0 -2 463 -3 462 -415 1 c-228 1 -455 -2 -505 -7z"/>
<path d="M9709 4008 c-1 -101 -2 -195 -3 -210 -2 -15 0 -31 3 -37 4 -6 200
-11 541 -14 476 -3 542 -5 595 -21 143 -42 237 -112 288 -213 23 -44 47 -140
47 -184 0 -17 -32 -18 -557 -22 -619 -4 -601 -2 -752 -74 -140 -67 -247 -207
-297 -393 -22 -81 -26 -394 -6 -478 53 -225 187 -391 367 -452 140 -48 179
-50 986 -50 l759 0 0 791 c0 751 -1 796 -20 892 -52 262 -235 475 -487 567
-194 70 -313 80 -955 80 l-508 0 -1 -182z m1471 -1418 l0 -290 -447 0 c-286 0
-462 4 -488 11 -70 19 -133 68 -163 129 -23 48 -27 67 -27 145 0 149 50 233
161 268 75 24 72 24 532 26 l432 1 0 -290z"/>
<path d="M6720 731 c-116 -62 -134 -203 -36 -289 84 -73 223 -47 270 51 23 50
20 124 -7 171 -43 76 -150 107 -227 67z m113 -62 c51 -23 71 -94 42 -149 -25
-48 -68 -62 -118 -39 -31 14 -47 48 -47 100 0 31 7 47 29 70 31 31 55 36 94
18z"/>
<path d="M10895 734 c-53 -30 -72 -81 -49 -130 16 -34 40 -46 119 -59 77 -13
97 -40 50 -71 -28 -18 -71 -12 -119 17 l-30 18 -18 -27 c-10 -15 -18 -30 -18
-34 0 -3 19 -16 43 -27 83 -40 194 -22 230 38 47 79 -1 136 -130 156 -53 8
-73 29 -50 52 20 20 76 19 116 -2 29 -14 30 -14 51 15 l22 30 -39 17 c-55 24
-141 27 -178 7z"/>
<path d="M100 711 c0 -29 2 -30 53 -33 l52 -3 5 -135 5 -135 37 -3 37 -3 3
138 3 138 53 3 c50 3 52 4 52 33 l0 29 -150 0 -150 0 0 -29z"/>
<path d="M770 570 l0 -170 40 0 40 0 0 70 0 70 70 0 69 0 3 -67 3 -68 40 0 40
0 3 168 2 167 -45 0 -45 0 0 -65 0 -65 -70 0 -70 0 0 65 0 65 -40 0 -40 0 0
-170z"/>
<path d="M1470 570 l0 -170 130 0 130 0 0 35 0 34 -87 3 -88 3 0 35 c0 33 1
34 40 32 69 -2 85 5 85 38 l0 30 -66 0 -65 0 3 33 3 32 88 3 87 3 0 29 0 30
-130 0 -130 0 0 -170z"/>
<path d="M2970 569 l0 -170 38 3 37 3 5 102 5 102 78 -105 c73 -99 79 -105
110 -102 l32 3 3 168 2 167 -40 0 -40 0 0 -102 0 -101 -75 101 c-73 100 -75
102 -115 102 l-40 0 0 -171z"/>
<path d="M3751 688 c-29 -78 -97 -250 -106 -270 -6 -16 -1 -18 37 -18 44 0 45
1 57 40 11 39 13 40 59 42 26 0 56 1 66 2 14 1 23 -11 34 -42 13 -41 15 -42
59 -42 39 0 44 2 38 18 -4 9 -29 73 -55 142 -73 192 -65 180 -121 180 l-48 0
-20 -52z m88 -75 c8 -21 16 -44 18 -50 4 -9 -7 -13 -36 -13 -23 0 -41 1 -41 3
0 14 33 97 39 97 4 0 13 -17 20 -37z"/>
<path d="M4362 573 l3 -168 35 0 35 0 5 112 5 112 50 -94 c28 -52 52 -95 55
-95 3 0 28 43 55 96 l50 97 3 -117 3 -116 39 0 40 0 0 170 0 170 -55 0 -55 0
-37 -75 c-21 -41 -40 -75 -43 -75 -3 0 -22 34 -43 75 l-37 75 -55 0 -55 0 2
-167z"/>
<path d="M5140 570 l0 -171 128 3 127 3 0 30 0 30 -87 3 -88 3 0 34 c0 35 1
35 45 36 25 1 51 2 58 3 6 0 13 16 15 34 l3 32 -60 0 -61 0 0 35 0 35 85 0 85
0 0 30 0 30 -125 0 -125 0 0 -170z"/>
<path d="M7360 570 l0 -170 40 0 40 0 0 70 0 70 60 0 60 0 0 35 0 35 -60 0
-60 0 0 35 0 35 90 0 90 0 0 30 0 30 -130 0 -130 0 0 -170z"/>
<path d="M8830 711 c0 -29 2 -30 53 -33 l52 -3 3 -138 3 -138 37 3 37 3 5 135
5 135 53 3 c50 3 52 4 52 33 l0 29 -150 0 -150 0 0 -29z"/>
<path d="M9500 570 l0 -170 40 0 40 0 0 65 0 65 30 0 c27 0 33 -7 62 -65 32
-65 32 -65 75 -65 24 0 43 3 43 8 0 4 -16 35 -34 70 l-34 63 24 15 c33 22 47
78 30 119 -24 56 -47 65 -168 65 l-108 0 0 -170z m188 98 c19 -19 14 -56 -8
-68 -12 -6 -38 -10 -58 -8 -36 3 -37 4 -40 46 l-3 42 48 0 c27 0 54 -5 61 -12z"/>
<path d="M10160 625 c0 -124 7 -151 54 -194 38 -36 121 -41 175 -11 60 34 71
67 71 204 l0 116 -40 0 -40 0 0 -110 c0 -104 -1 -112 -25 -135 -31 -32 -59
-32 -90 0 -24 23 -25 31 -25 135 l0 110 -40 0 -40 0 0 -115z"/>
<path d="M11460 711 c0 -29 2 -30 53 -33 l52 -3 5 -135 5 -135 37 -3 37 -3 3
138 3 138 53 3 c50 3 52 4 52 33 l0 29 -150 0 -150 0 0 -29z"/>
</g>
</svg>
